<?xml version="1.0" encoding="utf-8"?>
<!DOCTYPE svg PUBLIC "-//W3C//DTD SVG 1.1//EN" "http://www.w3.org/Graphics/SVG/1.1/DTD/svg11.dtd">
<svg version="1.1" xmlns="http://www.w3.org/2000/svg" xmlns:xlink="http://www.w3.org/1999/xlink" x="0px" y="0px" viewBox="0 0 1000 1000" enable-background="new 0 0 1000 1000" xml:space="preserve">
<g><g><g><path d="M636.1,146.1c-34.8,0-68.3,5.1-100.1,14.5c-2.7,6.1-5.3,12.2-7.8,18.3l0,0c-3.4,8.3-6.8,16.6-9.9,25c23.8-18.5,50.1-31.5,77.9-38c-17.1,17.7-32.3,46.5-44.7,83.7c-18.2,3.3-35.8,7.5-52.7,12.7c-1.7,5.8-3.2,11.6-4.8,17.4c16.8-5.6,34.4-10.2,52.5-13.8c-10.2,34.9-18.1,75.9-23.1,121.3c-18.3,2-35.9,4.4-52.6,7.3c-0.7,5.2-1.4,10.4-2,15.6c16.7-3,34.5-5.6,53.1-7.6c-1.4,14.7-2.4,29.8-3.2,45.2c1.2-0.1,2.4-0.3,3.7-0.3h11.4c0.8-16,1.9-31.6,3.3-46.5c30.8-2.9,63.9-4.6,99.1-4.6c35.2,0,68.3,1.7,99.1,4.6c2.9,30.8,4.6,63.9,4.6,99.1c0,35.2-1.6,68.3-4.6,99.1c-30.8,2.9-63.9,4.6-99.1,4.6s-68.3-1.7-99.1-4.6c-1.8-18.7-3-38.4-3.8-58.7l-13.6,30.4c0.6,9,1.3,18,2.1,26.7c-4.5-0.5-8.9-1.1-13.3-1.6l-6.4,14.3c7,0.9,14,1.8,21.2,2.6c5,45.4,12.9,86.5,23.1,121.3c-29.1-5.7-56.6-14.2-82.1-25c0.9,5.9,1.9,11.7,3,17.5c26.2,10.4,54.4,18.4,84.1,23.7c12.4,37.3,27.7,66.1,44.8,83.8c-47-10.9-89.5-40.5-123.3-83.4c3.4,12.2,7.5,24.2,12,35.8c13.2,13.2,27.4,24.7,42.4,34.2c-11.5-3.9-22.7-8.4-33.6-13.5c3.1,6.9,6.2,13.8,9.4,20.6c41.1,16.7,85.9,26,132.9,26c195.2,0,354-158.8,354-354C990,304.8,831.2,146.1,636.1,146.1z M889.2,432.1c54.6,19.3,85.7,44,85.7,67.9c0,23.9-31.2,48.6-85.7,67.9c3.1-22,4.8-44.7,4.8-67.9C894,476.8,892.3,454.1,889.2,432.1z M886.5,415.3c-6.4-35.7-16.7-69.2-30.4-99.7C915.4,352,957,402.7,970.3,460.2C952.6,443,923.8,427.8,886.5,415.3z M750.4,402.5c47.5,5.3,88.8,13.8,122.7,24.2c3.8,23.6,5.8,48.1,5.8,73.3c0,25.1-2,49.6-5.8,73.3c-33.9,10.5-75.2,18.9-122.7,24.2c2.9-30.9,4.4-63.5,4.4-97.5C754.9,466,753.3,433.4,750.4,402.5z M956.9,391.3c-25.5-39.7-64.4-74-112.5-99.6c-25.6-48.1-59.8-87-99.6-112.5C844.3,213,923.1,291.8,956.9,391.3z M820.5,280c-30.5-13.6-64.1-23.9-99.7-30.3c-12.4-37.3-27.7-66.1-44.8-83.8C733.4,179.1,784.1,220.7,820.5,280z M636.1,161.2c23.9,0,48.6,31.2,67.9,85.7c-22-3.1-44.7-4.8-67.9-4.8c-23.2,0-46,1.7-67.9,4.8C587.4,192.3,612.2,161.2,636.1,161.2z M636.1,381.3c-34,0-66.6,1.6-97.5,4.5c5.3-47.5,13.8-88.9,24.3-122.7c23.6-3.8,48.1-5.8,73.2-5.8c25.2,0,49.7,2,73.3,5.8c10.5,33.9,18.9,75.2,24.2,122.7C702.7,382.8,670,381.3,636.1,381.3z M725.8,265.9c39.1,7.7,75.4,20.3,107.5,36.9c16.5,32.1,29.1,68.4,36.8,107.5c-34.9-10.2-75.9-18.1-121.3-23.1C743.9,341.8,736,300.8,725.8,265.9z M748.9,612.8c45.4-5,86.4-12.9,121.3-23.1c-7.7,39.1-20.3,75.4-36.8,107.5c-32.1,16.5-68.4,29.1-107.5,36.9C736,699.3,743.9,658.2,748.9,612.8z M538.6,614.3c30.9,2.9,63.5,4.4,97.5,4.4c34,0,66.6-1.6,97.5-4.4c-5.3,47.5-13.8,88.8-24.2,122.7c-23.6,3.7-48.1,5.8-73.3,5.8c-25.2,0-49.7-2.1-73.3-5.8C552.3,703.1,543.9,661.8,538.6,614.3z M636.1,838.8c-23.9,0-48.6-31.1-67.9-85.7c22,3.1,44.7,4.8,67.9,4.8c23.2,0,45.9-1.7,67.9-4.8C684.7,807.7,660,838.8,636.1,838.8z M720.8,750.4c35.7-6.4,69.2-16.7,99.7-30.3c-36.4,59.3-87.1,100.8-144.6,114.2C693.1,816.6,708.3,787.7,720.8,750.4z M744.8,820.8c39.7-25.5,74-64.4,99.6-112.5c48.1-25.6,87-59.9,112.5-99.6C923.1,708.2,844.3,787,744.8,820.8z M856.1,684.4c13.6-30.5,23.9-64.1,30.4-99.7c37.3-12.4,66.1-27.7,83.8-44.9C957,597.3,915.4,648.1,856.1,684.4z"/><path d="M460,612.9L512,496.6h136.3c8.3,0,15.1-6.8,15.1-15.1c0-8.3-6.8-15.1-15.1-15.1H502.1c-6,0-11.4,3.5-13.8,9l-56.7,127.1c-0.6,0-1.1-0.1-1.7-0.1c-1.5,0-3,0.1-4.5,0.2l-90-252.2c11.4-8.9,18.8-22.7,18.8-38.2c0-26.7-21.7-48.4-48.4-48.4c-26.7,0-48.4,21.7-48.4,48.4c0,12.6,4.9,24.1,12.9,32.8l-58.9,105.8H104.4c-6.4-19.3-24.6-33.3-46-33.3c-26.7,0-48.4,21.7-48.4,48.4c0,26.7,21.7,48.4,48.4,48.4c21.5,0,39.7-14,46-33.4h115.7c5.5,0,10.5-3,13.2-7.8l63.2-113.5c3,0.6,6,0.9,9.2,0.9c0.4,0,0.8-0.1,1.2-0.1l90.7,254.2c-9.9,8.9-16.2,21.7-16.2,36.1c0,26.7,21.7,48.4,48.4,48.4c26.7,0,48.4-21.7,48.4-48.4C478.4,635.5,471.2,621.8,460,612.9z M58.4,506.8c-22.5,0-40.9-18.3-40.9-40.9c0-22.5,18.3-40.9,40.9-40.9c17.2,0,31.9,10.7,37.9,25.7H58.4c-8.3,0-15.1,6.8-15.1,15.1c0,8.3,6.8,15.1,15.1,15.1h38C90.4,496,75.7,506.8,58.4,506.8z M264.8,312.2c0-22.5,18.3-40.9,40.9-40.9c22.5,0,40.9,18.3,40.9,40.9c0,12.2-5.4,23.1-13.9,30.6l-12.8-35.7c-2-5.6-7.1-9.5-13-10c-5.9-0.5-11.6,2.5-14.4,7.7L274,338C268.3,330.9,264.8,322,264.8,312.2z M300.4,352.7l2.2-4l1.5,4.3C303,352.9,301.7,352.8,300.4,352.7z M428.2,610l-0.1,0.2l-0.1-0.2C428.1,610,428.2,610,428.2,610z M429.9,691.7c-22.5,0-40.9-18.3-40.9-40.9c0-11,4.4-20.9,11.4-28.3l11.9,33.4c2.1,5.8,7.5,9.8,13.7,10c0.2,0,0.4,0,0.6,0c5.9,0,11.4-3.5,13.8-9l16.4-36.8c8.5,7.5,14,18.5,14,30.7C470.8,673.3,452.5,691.7,429.9,691.7z"/></g></g><g></g><g></g><g></g><g></g><g></g><g></g><g></g><g></g><g></g><g></g><g></g><g></g><g></g><g></g><g></g></g>
</svg>
