<?xml version="1.0" encoding="utf-8"?>
<!-- Svg Vector Icons : http://www.onlinewebfonts.com/icon -->
<!DOCTYPE svg PUBLIC "-//W3C//DTD SVG 1.1//EN" "http://www.w3.org/Graphics/SVG/1.1/DTD/svg11.dtd">
<svg version="1.1" xmlns="http://www.w3.org/2000/svg" xmlns:xlink="http://www.w3.org/1999/xlink" x="0px" y="0px" viewBox="0 0 1000 1000" enable-background="new 0 0 1000 1000" xml:space="preserve">
<metadata> Svg Vector Icons : http://www.onlinewebfonts.com/icon </metadata>
<g><path d="M162.7,511.3L384.4,350l181.4,120.4l284.1-272.9l58.2,45.9l21.6-154.5l-166.9,14.9l46.5,55l-257,240l-170.9-113l-249.7,184L162.7,511.3L162.7,511.3z M10,929.5h980l-0.1-55.6H60.5V70.5H10L10,929.5L10,929.5z M146.2,804.4h238.2L384,444.1L146.2,615.4V804.4L146.2,804.4z M445.2,804.4h208.4V497.3l-74.8,76.2l-133.6-92.9V804.4L445.2,804.4z M716.2,804.4h208.6V257.9L716.2,462.2V804.4L716.2,804.4z"/></g>
</svg>