<?xml version="1.0" encoding="utf-8"?>
<!DOCTYPE svg PUBLIC "-//W3C//DTD SVG 1.1//EN" "http://www.w3.org/Graphics/SVG/1.1/DTD/svg11.dtd">
<svg version="1.1" xmlns="http://www.w3.org/2000/svg" xmlns:xlink="http://www.w3.org/1999/xlink" x="0px" y="0px" viewBox="0 0 1000 1000" enable-background="new 0 0 1000 1000" xml:space="preserve">
<g><path d="M729.7,990c-143.8,0-260.3-116.6-260.3-260.3c0-143.8,116.5-260.3,260.3-260.3S990,585.9,990,729.7C990,873.4,873.4,990,729.7,990L729.7,990z M729.7,530.6c-109.9,0-199.1,89.1-199.1,199.1c0,109.9,89.1,199.1,199.1,199.1s199.1-89.1,199.1-199.1C928.7,619.8,839.6,530.6,729.7,530.6L729.7,530.6z M852.2,775.6H699.1c-8.5,0-15.3-6.9-15.3-15.3V607.2c0-8.5,6.9-15.3,15.3-15.3h30.6c8.5,0,15.3,6.9,15.3,15.3v107.2h107.2c8.5,0,15.3,6.9,15.3,15.3v30.6C867.5,768.8,860.6,775.6,852.2,775.6L852.2,775.6z M836.9,101.9c0-16.9-13.7-30.6-30.6-30.6H101.9C85,71.3,71.2,85,71.2,101.9v796.3c0,16.9,13.7,30.6,30.6,30.6h306.2V990H71.2C37.4,990,10,962.5,10,928.7V71.2C10,37.4,37.4,10,71.2,10h765.6c33.8,0,61.3,27.4,61.3,61.3v275.6h-61.3V101.9L836.9,101.9z M239.7,683.7h122.5c8.4,0,15.3,6.9,15.3,15.3v30.6c0,8.4-6.9,15.3-15.3,15.3H239.7c-8.5,0-15.3-6.9-15.3-15.3v-30.6C224.4,690.6,231.2,683.7,239.7,683.7L239.7,683.7z M224.4,301v-30.6c0-8.5,6.8-15.3,15.3-15.3h459.4c8.5,0,15.3,6.9,15.3,15.3V301c0,8.4-6.9,15.3-15.3,15.3H239.7C231.2,316.3,224.4,309.4,224.4,301L224.4,301z M224.4,515.3v-30.6c0-8.5,6.8-15.3,15.3-15.3h214.4c8.5,0,15.3,6.9,15.3,15.3v30.6c0,8.4-6.9,15.3-15.3,15.3H239.7C231.2,530.6,224.4,523.7,224.4,515.3L224.4,515.3z"/></g>
</svg>
