<svg xmlns="http://www.w3.org/2000/svg" width="500" height="500" viewBox="0 0 132.292 132.292"><rect width="134.493" height="133.468" x="-.823" y="-.383" ry="1.22" fill="#fff"/><g transform="translate(124.47 -50.852) scale(.59465)" opacity=".5"><rect width="103.879" height="103.879" x="-150.02" y="130.501" ry="23.87" fill="#70ffff" stroke="#abffff" stroke-width="10.876" stroke-linecap="round" stroke-linejoin="round"/><rect ry="15.846" y="147.962" x="-132.559" height="68.958" width="68.958" fill="#95ffff"/><path d="M-117.88 172.147a5.525 5.525 0 0 1 6.255 4.657 5.525 5.525 0 0 1-4.63 6.274 5.525 5.525 0 0 1-6.294-4.603 5.525 5.525 0 0 1 4.577-6.313m38.113-.899a5.525 5.525 0 0 1 6.255 4.657 5.525 5.525 0 0 1-4.63 6.274 5.525 5.525 0 0 1-6.294-4.604 5.525 5.525 0 0 1 4.577-6.313" fill="#45d0ff"/><path d="M-88.65 183.09c4.122-.005-.959 7.892-4.28 10.095a9.938 9.938 0 0 1-10.966.011c-3.327-2.195-6.807-10.083-4.302-10.086z" fill="#44c4ff"/><path d="M-100.915 191.498a5.31 2.205.4 0 1-1.68-3.034 5.31 2.205.4 0 1 7.267-.683 5.31 2.205.4 0 1 1.813 3.021 5.31 2.205.4 0 1-7.233.74" fill="#bdffff"/><path d="M-68.707 222.265h-19.045m-8.295-.067h-5.896" fill="none" stroke="#bdffff" stroke-width="3.854" stroke-linecap="round" stroke-linejoin="round"/></g></svg>